<svg viewBox="0 0 24 24"
  xmlns="http://www.w3.org/2000/svg" fill="none" stroke-width="1.5" stroke="currentColor">
  <path stroke-linecap="round" stroke-linejoin="round" d="m 8.01296,8.89281 c 0,0 -1.21949,2.90009 0,6.21439 M 12.1382,4.74989 8.01558,8.89281 H 4.2434 c -0.55164,0 -0.9934,0.4345 -0.9934,0.9737 v 4.26699 c 0,0.5392 0.44176,0.9737 0.9934,0.9737 h 3.77218 l 4.12262,4.1429 z" />
  <path class="volume-1" stroke-linecap="round" stroke-linejoin="round" d="m 14.096542,10.165673 c 0.826195,0.221388 1.400713,0.970094 1.400665,1.825377 3.4e-5,0.855341 -0.57447,1.604011 -1.400642,1.825384" />
  <path class="volume-2" stroke-linecap="round" stroke-linejoin="round" d="m 15.350183,8.3377038 c 1.652392,0.4427716 2.801345,1.9401262 2.801331,3.6507512 -1.8e-5,1.710632 -1.148936,3.208015 -2.80128,3.65076" />
  <path class="volume-3" stroke-linecap="round" stroke-linejoin="round" d="m 16.739362,6.5123739 c 2.478504,0.6641052 4.201889,2.9101157 4.20191,5.4760801 2e-5,2.565964 -1.723406,4.812026 -4.201923,5.476143" />
  <path class="volume-mute" stroke-linecap="round" stroke-linejoin="round" d="m 17.6196,10.25 c -3.5169,3.5169 -3.5,3.5 -3.5,3.5 m 0,-3.5 c 3.5169,3.5169 3.5,3.5 3.5,3.5" />
</svg>
